<?xml version="1.0" standalone="no"?>
<!DOCTYPE svg PUBLIC "-//W3C//DTD SVG 20010904//EN"
 "http://www.w3.org/TR/2001/REC-SVG-20010904/DTD/svg10.dtd">
<svg version="1.0" xmlns="http://www.w3.org/2000/svg"
 width="520.000000pt" height="219.000000pt" viewBox="0 0 520.000000 219.000000"
 preserveAspectRatio="xMidYMid meet">
<metadata>
Created by potrace 1.16, written by Peter Selinger 2001-2019
</metadata>
<g transform="translate(0.000000,219.000000) scale(0.100000,-0.100000)"
fill="#111" stroke="none">
<path d="M1036 1907 c-55 -94 -157 -271 -226 -392 -221 -383 -721 -1249 -742
-1282 l-20 -33 135 0 135 0 79 138 80 137 192 3 c105 1 191 0 191 -2 0 -3 -32
-60 -71 -126 -39 -67 -73 -128 -76 -136 -5 -12 15 -14 127 -12 l133 3 80 138
79 137 1447 0 1446 0 80 -140 80 -140 133 0 c74 0 132 4 130 8 -1 4 -36 64
-75 134 -40 69 -73 128 -73 132 0 3 85 6 189 6 l189 0 79 -137 79 -138 132 -3
c73 -1 132 0 132 4 0 5 -283 499 -490 854 -37 63 -154 266 -260 450 -106 184
-223 387 -260 450 l-66 115 -132 3 c-73 1 -132 -1 -132 -5 0 -4 9 -23 20 -41
12 -19 164 -282 339 -585 175 -304 342 -592 370 -640 28 -49 51 -91 51 -93 0
-2 -86 -3 -192 -2 l-192 3 -199 345 c-110 190 -287 497 -394 683 l-195 337
-134 0 -133 0 88 -152 c48 -84 224 -389 391 -678 166 -289 304 -528 307 -532
2 -5 -83 -8 -189 -8 l-193 0 -105 183 c-58 100 -236 408 -395 684 l-290 503
-136 0 -136 0 -218 -377 c-340 -587 -516 -894 -544 -945 l-26 -48 -192 0
c-106 0 -193 2 -193 4 0 5 145 257 553 963 125 216 227 395 227 398 0 3 -59 4
-132 3 l-132 -3 -64 -110 c-35 -60 -212 -368 -394 -682 l-330 -573 -189 0
c-104 0 -189 3 -189 7 0 6 48 90 318 558 207 356 437 756 451 783 l12 22 -133
0 -133 0 -99 -173z m1602 -159 c61 -104 248 -428 472 -816 67 -117 120 -215
118 -218 -3 -2 -298 -3 -656 -2 l-650 3 269 465 c148 256 295 511 326 567 32
57 59 103 59 103 1 0 29 -46 62 -102z"/>
</g>
</svg>
